<svg width="691" height="297" viewBox="0 0 691 297" fill="none" xmlns="http://www.w3.org/2000/svg">
<path fill-rule="evenodd" clip-rule="evenodd" d="M106.086 1.17761C104.449 1.96761 103.836 3.13361 103.836 5.45561C103.836 12.5836 119.082 30.5836 131.321 37.9046C143.358 45.1056 142.305 44.9636 213.336 48.9736C269.311 52.1336 297.2 53.9906 298.836 54.6666C302.861 56.3296 285.723 56.8156 220.651 56.8836C176.855 56.9296 148.981 57.3326 147.375 57.9426C143.707 59.3376 143.33 61.2806 145.755 66.2906C150.936 76.9926 170.209 93.7396 183.532 99.1156L189.336 101.458L253.336 101.958C311.269 102.411 317.632 102.62 320.462 104.169C322.181 105.111 328.494 109.86 334.491 114.723C340.488 119.586 348.446 125.903 352.175 128.761L358.956 133.958L403.146 133.964C432.023 133.967 448.722 134.348 451.336 135.063C453.954 135.78 457.006 137.879 460.169 141.141C462.828 143.882 464.853 146.262 464.669 146.43C464.335 146.736 358.282 147.385 354.119 147.106C352.869 147.023 343.811 140.22 333.36 131.518C317.527 118.333 314.199 115.988 310.577 115.459C308.245 115.119 289.223 114.98 268.307 115.149L230.277 115.458L225.413 117.962C215.651 122.989 216.258 121.408 198.676 187.677C173.638 282.056 174.392 278.985 175.209 283.229C176.08 287.755 181.077 293.743 185.538 295.607C188.092 296.674 198.244 296.958 233.804 296.958C258.572 296.958 428.336 295.349 428.336 295.607C393.81 295.764 -117.992 296.787 435.31 295.607C441.756 295.607 443.951 279.144 444.282 278.036C444.541 277.168 447.501 267.233 450.859 255.958C454.218 244.683 461.71 219.708 467.51 200.458C477.823 166.227 481.796 150.639 481.823 144.313C481.83 142.584 480.921 138.205 479.802 134.584C478.216 129.449 476.554 126.688 472.256 122.045C464.978 114.184 458.355 109.923 441.56 102.298C433.896 98.8176 424.635 93.9486 420.981 91.4756C412.79 85.9356 405.13 79.3296 405.948 78.5126C406.724 77.7356 444.369 89.0376 453.829 92.8876C479.68 103.408 494.885 122.33 494.814 143.89C494.779 154.676 493.046 161.237 467.753 246.375C464.499 257.329 462.03 266.485 462.266 266.721C462.502 266.957 465.462 265.676 468.844 263.873C479.469 258.21 492.205 244.986 510.576 220.543C532.251 191.704 537.3 185.519 549.315 173.096C577.253 144.207 606.551 131.108 649.43 128.336L660.297 127.634L656.266 125.921C649.018 122.843 642.007 121.96 624.037 121.858C614.301 121.803 605.211 121.418 603.836 121.002L601.336 120.245L603.836 119.61C612.049 117.522 616.719 116.911 628.836 116.337C643.009 115.666 653.264 116.677 662.304 119.637C669.312 121.931 677.057 129.808 678.693 136.304C680.124 141.989 681.046 141.664 685.216 134.001C688.871 127.285 691.173 115.977 690.31 108.976C687.803 88.6396 674.461 77.7226 646.836 73.4006C632.464 71.1516 631.495 70.8986 632.683 69.7106C634.278 68.1156 630.762 62.0656 625.33 57.0596C617.453 49.7986 604.905 45.2116 586.862 42.9976C581.567 42.3476 544.364 41.9576 487.668 41.9576H396.948L394.485 39.7076C392.895 38.2546 390.884 33.9166 388.806 27.4576C384.798 14.9956 381.468 8.67761 377.191 5.41461C369.675 -0.317392 376.689 -0.0484 236.96 0.0256C146.662 0.0726 107.666 0.416608 106.086 1.17761ZM553.056 69.4606C553.452 69.8846 557.952 71.2346 563.056 72.4616L572.336 74.6916L571.997 79.7806C571.569 86.2126 574.499 91.8376 579.84 94.8396C589.781 100.427 602.355 93.9846 605.362 81.7646C605.837 79.8336 606.775 78.9676 608.68 78.7016C611.27 78.3396 611.243 78.2886 607.575 76.6256C598.861 72.6766 583.732 69.8786 567.836 69.2766C559.311 68.9536 552.66 69.0366 553.056 69.4606ZM78.3362 134.958C70.6362 135.233 63.7702 135.824 63.0792 136.271C62.3872 136.719 61.1012 138.479 60.2192 140.184C58.8962 142.742 58.8172 143.951 59.7652 147.115C61.8652 154.124 60.4512 153.958 118.21 153.958H169.683L172.641 151.469C176.247 148.435 177.158 144.49 175.209 140.353C172.545 134.701 172.332 134.673 130.627 134.561C109.567 134.504 86.0362 134.683 78.3362 134.958ZM5.84917 186.233C0.0331712 187.742 -1.96583 196.192 2.24617 201.458L4.64617 204.458L77.7712 204.727C129.503 204.918 151.497 204.675 152.951 203.897C155.448 202.56 158.034 196.747 157.235 194.264C155.874 190.029 154.41 188.026 151.952 187.033C148.845 185.779 10.5202 185.021 5.84917 186.233ZM69.5082 239.001C64.6512 242.822 65.3872 252.042 70.7812 254.928C71.9942 255.578 85.4992 255.958 107.347 255.958H141.99L144.913 253.035C147.077 250.871 147.836 249.163 147.836 246.458C147.836 243.753 147.077 242.045 144.913 239.881L141.99 236.958H107.048C73.3732 236.958 72.0122 237.032 69.5082 239.001ZM248.086 243.627C240.798 243.841 234.836 244.419 234.836 244.911C234.836 246.133 245.227 246.507 287.248 246.797C325.416 247.061 348.64 246.203 341.336 244.799C336.73 243.914 267.812 243.048 248.086 243.627Z" fill="#092E46"/>
</svg>
