<svg width="692" height="297" viewBox="0 0 692 297" fill="none" xmlns="http://www.w3.org/2000/svg">
<path fill-rule="evenodd" clip-rule="evenodd" d="M106.776 1.22C105.139 2.01 104.526 3.176 104.526 5.498C104.526 12.626 119.772 30.626 132.011 37.947C144.048 45.148 142.995 45.006 214.026 49.016C270.001 52.176 297.89 54.033 299.526 54.709C303.551 56.372 286.413 56.858 221.341 56.926C177.545 56.972 149.671 57.375 148.065 57.985C144.397 59.38 144.02 61.323 146.445 66.333C151.626 77.035 170.899 93.782 184.222 99.158L190.026 101.5L254.026 102C311.959 102.453 318.322 102.662 321.152 104.211C322.871 105.153 329.184 109.902 335.181 114.765C341.178 119.628 349.136 125.945 352.865 128.803L359.646 134L403.836 134.006C432.713 134.009 449.412 134.39 452.026 135.105C454.644 135.822 457.696 137.921 460.859 141.183C463.518 143.924 465.543 146.304 465.359 146.472C465.025 146.778 358.972 147.427 354.809 147.148C353.559 147.065 344.501 140.262 334.05 131.56C318.217 118.375 314.889 116.03 311.267 115.501C308.935 115.161 289.913 115.022 268.997 115.191L230.967 115.5L226.103 118.004C216.341 123.031 216.948 121.45 199.366 187.719C174.328 282.098 175.082 279.027 175.899 283.271C176.77 287.797 181.767 293.785 186.228 295.649C188.782 296.716 198.934 297 234.494 297C259.262 297 429.026 295.391 429.026 295.649C394.5 295.806 -117.302 296.83 436 295.649C442.446 295.649 444.641 279.186 444.972 278.078C445.231 277.21 448.191 267.275 451.549 256C454.908 244.725 462.4 219.75 468.2 200.5C478.513 166.269 482.486 150.681 482.513 144.355C482.52 142.626 481.611 138.247 480.492 134.626C478.906 129.491 477.244 126.73 472.946 122.087C465.668 114.226 459.045 109.965 442.25 102.34C434.586 98.86 425.325 93.991 421.671 91.518C413.48 85.978 405.82 79.372 406.638 78.555C407.414 77.778 445.059 89.08 454.519 92.93C480.37 103.45 495.575 122.372 495.504 143.932C495.469 154.718 493.736 161.279 468.443 246.417C465.189 257.371 462.72 266.527 462.956 266.763C463.192 266.999 466.152 265.718 469.534 263.915C480.159 258.252 492.895 245.028 511.266 220.585C532.941 191.746 537.99 185.561 550.005 173.138C577.943 144.249 607.241 131.15 650.12 128.378L660.987 127.676L656.956 125.963C649.708 122.885 642.697 122.002 624.727 121.9C614.991 121.845 605.901 121.46 604.526 121.044L602.026 120.287L604.526 119.652C612.739 117.564 617.409 116.953 629.526 116.379C643.699 115.708 653.954 116.719 662.994 119.679C670.002 121.973 677.747 129.85 679.383 136.346C680.814 142.031 681.736 141.706 685.906 134.043C689.561 127.327 691.863 116.019 691 109.018C688.493 88.682 675.151 77.765 647.526 73.443C633.154 71.194 632.185 70.941 633.373 69.753C634.968 68.158 631.452 62.108 626.02 57.102C618.143 49.841 605.595 45.254 587.552 43.04C582.257 42.39 545.054 42 488.358 42H397.638L395.175 39.75C393.585 38.297 391.574 33.959 389.496 27.5C385.488 15.038 382.158 8.72 377.881 5.457C370.365 -0.275003 377.379 -0.00601109 237.65 0.0679889C147.352 0.114989 108.356 0.458997 106.776 1.22ZM553.746 69.503C554.142 69.927 558.642 71.277 563.746 72.504L573.026 74.734L572.687 79.823C572.259 86.255 575.189 91.88 580.53 94.882C590.471 100.469 603.045 94.027 606.052 81.807C606.527 79.876 607.465 79.01 609.37 78.744C611.96 78.382 611.933 78.331 608.265 76.668C599.551 72.719 584.422 69.921 568.526 69.319C560.001 68.996 553.35 69.079 553.746 69.503ZM79.026 135C71.326 135.275 64.46 135.866 63.769 136.313C63.077 136.761 61.791 138.521 60.909 140.226C59.586 142.784 59.507 143.993 60.455 147.157C62.555 154.166 61.141 154 118.9 154H170.373L173.331 151.511C176.937 148.477 177.848 144.532 175.899 140.395C173.235 134.743 173.022 134.715 131.317 134.603C110.257 134.546 86.726 134.725 79.026 135ZM6.53899 186.275C0.722991 187.784 -1.27601 196.234 2.93599 201.5L5.33599 204.5L78.461 204.769C130.193 204.96 152.187 204.717 153.641 203.939C156.138 202.602 158.724 196.789 157.925 194.306C156.564 190.071 155.1 188.068 152.642 187.075C149.535 185.821 11.21 185.063 6.53899 186.275ZM70.198 239.043C65.341 242.864 66.077 252.084 71.471 254.97C72.684 255.62 86.189 256 108.037 256H142.68L145.603 253.077C147.767 250.913 148.526 249.205 148.526 246.5C148.526 243.795 147.767 242.087 145.603 239.923L142.68 237H107.738C74.063 237 72.702 237.074 70.198 239.043ZM248.776 243.669C241.488 243.883 235.526 244.461 235.526 244.953C235.526 246.175 245.917 246.549 287.938 246.839C326.106 247.103 349.33 246.245 342.026 244.841C337.42 243.956 268.502 243.09 248.776 243.669Z" fill="white"/>
</svg>
